<svg id="svg" version="1.1" xmlns="http://www.w3.org/2000/svg" xmlns:xlink="http://www.w3.org/1999/xlink" width="400" height="363.3986928104575" viewBox="0, 0, 400,363.3986928104575"><g id="svgg"><path id="path0" d="M191.818 37.818 C 191.685 38.033,189.464 38.182,186.381 38.182 C 182.083 38.182,181.132 38.278,180.959 38.727 C 180.796 39.153,180.070 39.273,177.648 39.273 C 175.822 39.273,174.545 39.422,174.545 39.636 C 174.545 39.838,173.589 40.000,172.403 40.000 C 170.833 40.000,170.204 40.146,170.050 40.545 C 169.907 40.918,169.325 41.091,168.215 41.091 C 167.320 41.091,166.487 41.255,166.364 41.455 C 166.240 41.655,165.430 41.818,164.563 41.818 C 163.497 41.818,162.919 41.995,162.778 42.364 C 162.635 42.736,162.052 42.909,160.942 42.909 C 160.047 42.909,159.215 43.073,159.091 43.273 C 158.967 43.473,158.405 43.636,157.841 43.636 C 157.278 43.636,156.613 43.882,156.364 44.182 C 156.115 44.482,155.450 44.727,154.886 44.727 C 154.322 44.727,153.760 44.891,153.636 45.091 C 153.513 45.291,152.950 45.455,152.387 45.455 C 151.823 45.455,151.158 45.700,150.909 46.000 C 150.660 46.300,149.995 46.545,149.431 46.545 C 148.868 46.545,148.305 46.709,148.182 46.909 C 148.058 47.109,147.659 47.273,147.296 47.273 C 146.932 47.273,146.431 47.518,146.182 47.818 C 145.933 48.118,145.258 48.364,144.683 48.364 C 144.107 48.364,143.636 48.527,143.636 48.727 C 143.636 48.927,143.329 49.091,142.954 49.091 C 142.578 49.091,142.067 49.336,141.818 49.636 C 141.569 49.936,141.058 50.182,140.683 50.182 C 140.307 50.182,140.000 50.345,140.000 50.545 C 140.000 50.745,139.693 50.909,139.317 50.909 C 138.942 50.909,138.431 51.155,138.182 51.455 C 137.933 51.755,137.422 52.000,137.046 52.000 C 136.671 52.000,136.364 52.164,136.364 52.364 C 136.364 52.564,136.056 52.727,135.681 52.727 C 135.305 52.727,134.794 52.973,134.545 53.273 C 134.296 53.573,133.786 53.818,133.410 53.818 C 133.035 53.818,132.727 53.982,132.727 54.182 C 132.727 54.382,132.429 54.545,132.063 54.545 C 131.698 54.545,131.015 54.955,130.545 55.455 C 130.076 55.955,129.410 56.364,129.066 56.364 C 128.723 56.364,128.347 56.609,128.232 56.909 C 128.117 57.209,127.719 57.455,127.348 57.455 C 126.976 57.455,126.288 57.864,125.818 58.364 C 125.348 58.864,124.665 59.273,124.300 59.273 C 123.935 59.273,123.636 59.436,123.636 59.636 C 123.636 59.836,123.338 60.000,122.972 60.000 C 122.607 60.000,121.924 60.409,121.455 60.909 C 120.985 61.409,120.319 61.818,119.976 61.818 C 119.632 61.818,119.256 62.064,119.141 62.364 C 119.026 62.664,118.628 62.909,118.257 62.909 C 117.885 62.909,117.197 63.318,116.727 63.818 C 116.258 64.318,115.659 64.727,115.398 64.727 C 115.136 64.727,114.333 65.300,113.612 66.000 C 112.891 66.700,112.108 67.273,111.871 67.273 C 111.634 67.273,109.811 68.909,107.818 70.909 C 105.826 72.909,103.995 74.545,103.750 74.545 C 103.167 74.545,92.727 84.985,92.727 85.568 C 92.727 85.813,91.091 87.644,89.091 89.636 C 87.091 91.629,85.455 93.489,85.455 93.770 C 85.455 94.050,85.045 94.659,84.545 95.123 C 84.045 95.586,83.636 96.190,83.636 96.465 C 83.636 96.739,83.227 97.348,82.727 97.818 C 82.227 98.288,81.818 98.875,81.818 99.123 C 81.818 99.371,81.245 100.164,80.545 100.884 C 79.845 101.605,79.273 102.417,79.273 102.689 C 79.273 102.961,79.027 103.387,78.727 103.636 C 78.427 103.885,78.182 104.291,78.182 104.537 C 78.182 104.783,77.773 105.426,77.273 105.966 C 76.773 106.505,76.364 107.077,76.364 107.236 C 76.364 107.767,75.314 109.637,74.562 110.444 C 74.153 110.883,73.818 111.475,73.818 111.758 C 73.818 112.042,73.573 112.478,73.273 112.727 C 72.973 112.976,72.727 113.487,72.727 113.863 C 72.727 114.238,72.564 114.545,72.364 114.545 C 72.164 114.545,72.000 114.863,72.000 115.251 C 72.000 115.639,71.841 116.056,71.646 116.176 C 71.337 116.367,70.833 117.336,70.035 119.273 C 69.911 119.573,69.497 120.309,69.113 120.909 C 68.730 121.509,68.405 122.266,68.390 122.592 C 68.376 122.917,68.118 123.387,67.818 123.636 C 67.518 123.885,67.261 124.519,67.246 125.045 C 67.232 125.570,66.906 126.491,66.523 127.091 C 66.140 127.691,65.731 128.427,65.614 128.727 C 65.497 129.027,65.250 129.557,65.064 129.904 C 64.879 130.251,64.727 130.927,64.727 131.405 C 64.727 131.883,64.482 132.478,64.182 132.727 C 63.882 132.976,63.636 133.641,63.636 134.205 C 63.636 134.769,63.473 135.331,63.273 135.455 C 63.073 135.578,62.909 136.141,62.909 136.704 C 62.909 137.268,62.664 137.933,62.364 138.182 C 62.004 138.480,61.818 139.293,61.818 140.569 C 61.818 141.632,61.655 142.604,61.455 142.727 C 61.255 142.851,61.091 143.822,61.091 144.886 C 61.091 146.162,60.905 146.974,60.545 147.273 C 60.146 147.604,60.000 148.485,60.000 150.569 C 60.000 152.132,59.836 153.513,59.636 153.636 C 59.436 153.760,59.273 154.731,59.273 155.795 C 59.273 157.071,59.087 157.883,58.727 158.182 C 58.328 158.514,58.182 159.394,58.182 161.478 C 58.182 163.041,58.018 164.422,57.818 164.545 C 57.603 164.679,57.455 166.917,57.455 170.033 C 57.455 174.375,57.359 175.332,56.909 175.505 C 56.090 175.819,56.090 197.502,56.909 198.182 C 57.329 198.531,57.455 199.495,57.455 202.387 C 57.455 204.496,57.614 206.237,57.818 206.364 C 58.018 206.487,58.182 207.707,58.182 209.073 C 58.182 210.947,58.316 211.610,58.727 211.768 C 59.100 211.911,59.273 212.493,59.273 213.603 C 59.273 214.498,59.436 215.331,59.636 215.455 C 59.836 215.578,60.000 216.386,60.000 217.250 C 60.000 218.202,60.215 218.998,60.545 219.273 C 60.856 219.530,61.091 220.323,61.091 221.114 C 61.091 221.878,61.255 222.604,61.455 222.727 C 61.655 222.851,61.818 223.413,61.818 223.977 C 61.818 224.541,62.064 225.206,62.364 225.455 C 62.664 225.704,62.909 226.368,62.909 226.932 C 62.909 227.496,63.073 228.058,63.273 228.182 C 63.473 228.305,63.636 228.868,63.636 229.431 C 63.636 229.995,63.882 230.660,64.182 230.909 C 64.482 231.158,64.727 231.823,64.727 232.387 C 64.727 232.950,64.891 233.513,65.091 233.636 C 65.291 233.760,65.455 234.161,65.455 234.528 C 65.455 234.895,65.700 235.289,66.000 235.404 C 66.300 235.519,66.545 235.936,66.545 236.331 C 66.545 236.725,66.709 237.149,66.909 237.273 C 67.109 237.396,67.273 237.795,67.273 238.159 C 67.273 238.522,67.518 239.024,67.818 239.273 C 68.118 239.522,68.364 240.196,68.364 240.772 C 68.364 241.347,68.527 241.818,68.727 241.818 C 68.927 241.818,69.091 242.125,69.091 242.501 C 69.091 242.876,69.336 243.387,69.636 243.636 C 69.936 243.885,70.182 244.321,70.182 244.605 C 70.182 244.889,70.516 245.480,70.925 245.919 C 71.769 246.825,72.727 248.617,72.727 249.290 C 72.727 249.538,72.973 249.835,73.273 249.950 C 73.573 250.065,73.818 250.482,73.818 250.876 C 73.818 251.271,73.982 251.695,74.182 251.818 C 74.382 251.942,74.545 252.343,74.545 252.710 C 74.545 253.077,74.791 253.471,75.091 253.586 C 75.391 253.701,75.636 254.118,75.636 254.513 C 75.636 254.907,75.800 255.331,76.000 255.455 C 76.200 255.578,76.364 255.907,76.364 256.185 C 76.364 256.462,76.773 257.131,77.273 257.671 C 77.773 258.210,78.182 258.853,78.182 259.099 C 78.182 259.346,78.427 259.751,78.727 260.000 C 79.027 260.249,79.273 260.721,79.273 261.049 C 79.273 261.377,79.682 261.953,80.182 262.328 C 80.682 262.704,81.091 263.283,81.091 263.616 C 81.091 263.949,81.664 264.776,82.364 265.455 C 83.064 266.133,83.636 266.891,83.636 267.138 C 83.636 267.385,84.455 268.428,85.455 269.455 C 86.455 270.481,87.273 271.519,87.273 271.761 C 87.273 272.002,88.500 273.419,90.000 274.909 C 91.500 276.399,92.727 277.809,92.727 278.043 C 92.727 278.277,93.791 279.585,95.091 280.951 C 96.391 282.316,97.455 283.596,97.455 283.794 C 97.455 284.281,100.417 287.273,100.899 287.273 C 101.111 287.273,102.316 288.255,103.577 289.455 C 104.838 290.655,106.070 291.636,106.316 291.636 C 106.561 291.636,107.401 292.291,108.182 293.091 C 108.963 293.891,109.836 294.545,110.122 294.545 C 110.408 294.545,111.182 295.118,111.842 295.818 C 112.502 296.518,113.270 297.091,113.549 297.091 C 113.827 297.091,114.439 297.500,114.909 298.000 C 115.379 298.500,116.039 298.909,116.376 298.909 C 116.713 298.909,117.296 299.318,117.672 299.818 C 118.047 300.318,118.623 300.727,118.951 300.727 C 119.279 300.727,119.751 300.973,120.000 301.273 C 120.249 301.573,120.760 301.818,121.135 301.818 C 121.511 301.818,121.818 301.982,121.818 302.182 C 121.818 302.382,122.136 302.545,122.524 302.545 C 122.912 302.545,123.325 302.699,123.440 302.886 C 123.707 303.317,125.785 304.364,126.375 304.364 C 126.620 304.364,127.024 304.609,127.273 304.909 C 127.522 305.209,128.033 305.455,128.408 305.455 C 128.784 305.455,129.091 305.618,129.091 305.818 C 129.091 306.018,129.398 306.182,129.774 306.182 C 130.149 306.182,130.660 306.427,130.909 306.727 C 131.158 307.027,131.823 307.273,132.387 307.273 C 132.950 307.273,133.513 307.436,133.636 307.636 C 133.760 307.836,134.184 308.000,134.578 308.000 C 134.973 308.000,135.390 308.245,135.505 308.545 C 135.620 308.845,136.014 309.091,136.381 309.091 C 136.748 309.091,137.149 309.255,137.273 309.455 C 137.396 309.655,137.959 309.818,138.522 309.818 C 139.086 309.818,139.751 310.064,140.000 310.364 C 140.249 310.664,140.760 310.909,141.135 310.909 C 141.511 310.909,141.818 311.073,141.818 311.273 C 141.818 311.473,142.289 311.636,142.865 311.636 C 143.440 311.636,144.115 311.882,144.364 312.182 C 144.613 312.482,145.114 312.727,145.478 312.727 C 145.841 312.727,146.240 312.891,146.364 313.091 C 146.487 313.291,147.050 313.455,147.613 313.455 C 148.177 313.455,148.842 313.700,149.091 314.000 C 149.340 314.300,149.851 314.545,150.226 314.545 C 150.602 314.545,150.909 314.709,150.909 314.909 C 150.909 315.109,151.487 315.273,152.193 315.273 C 152.999 315.273,153.555 315.476,153.687 315.818 C 153.816 316.155,154.369 316.364,155.130 316.364 C 155.808 316.364,156.364 316.527,156.364 316.727 C 156.364 316.927,156.941 317.091,157.648 317.091 C 158.454 317.091,159.010 317.294,159.141 317.636 C 159.270 317.973,159.823 318.182,160.584 318.182 C 161.263 318.182,161.818 318.345,161.818 318.545 C 161.818 318.745,162.535 318.909,163.410 318.909 C 164.381 318.909,165.178 319.122,165.455 319.455 C 165.704 319.755,166.368 320.000,166.932 320.000 C 167.496 320.000,168.058 320.164,168.182 320.364 C 168.305 320.564,169.138 320.727,170.033 320.727 C 171.143 320.727,171.726 320.900,171.868 321.273 C 172.022 321.672,172.651 321.818,174.221 321.818 C 175.407 321.818,176.364 321.981,176.364 322.182 C 176.364 322.384,177.337 322.545,178.557 322.545 C 180.171 322.545,180.805 322.689,180.959 323.091 C 181.117 323.502,181.780 323.636,183.654 323.636 C 185.021 323.636,186.240 323.800,186.364 324.000 C 186.488 324.201,188.129 324.364,190.033 324.364 C 192.759 324.364,193.521 324.477,193.687 324.909 C 194.001 325.727,213.867 325.727,214.545 324.909 C 214.905 324.476,215.960 324.364,219.659 324.364 C 222.375 324.364,224.415 324.212,224.545 324.000 C 224.669 323.800,226.050 323.636,227.613 323.636 C 229.697 323.636,230.577 323.491,230.909 323.091 C 231.185 322.758,231.982 322.545,232.954 322.545 C 233.829 322.545,234.545 322.382,234.545 322.182 C 234.545 321.982,235.101 321.818,235.779 321.818 C 236.541 321.818,237.093 321.609,237.222 321.273 C 237.354 320.930,237.910 320.727,238.716 320.727 C 239.422 320.727,240.000 320.564,240.000 320.364 C 240.000 320.164,240.555 320.000,241.234 320.000 C 241.995 320.000,242.548 319.791,242.677 319.455 C 242.808 319.112,243.364 318.909,244.170 318.909 C 244.877 318.909,245.455 318.745,245.455 318.545 C 245.455 318.345,246.010 318.182,246.688 318.182 C 247.450 318.182,248.002 317.973,248.132 317.636 C 248.247 317.336,248.664 317.091,249.058 317.091 C 249.453 317.091,249.876 316.927,250.000 316.727 C 250.124 316.527,250.686 316.364,251.250 316.364 C 251.813 316.364,252.478 316.118,252.727 315.818 C 252.976 315.518,253.487 315.273,253.863 315.273 C 254.238 315.273,254.545 315.109,254.545 314.909 C 254.545 314.709,254.853 314.545,255.228 314.545 C 255.604 314.545,256.115 314.300,256.364 314.000 C 256.613 313.700,257.278 313.455,257.841 313.455 C 258.405 313.455,258.967 313.291,259.091 313.091 C 259.215 312.891,259.616 312.727,259.983 312.727 C 260.349 312.727,260.744 312.482,260.859 312.182 C 260.974 311.882,261.391 311.636,261.785 311.636 C 262.180 311.636,262.604 311.473,262.727 311.273 C 262.851 311.073,263.413 310.909,263.977 310.909 C 264.541 310.909,265.206 310.664,265.455 310.364 C 265.704 310.064,266.214 309.818,266.590 309.818 C 266.965 309.818,267.273 309.655,267.273 309.455 C 267.273 309.255,267.580 309.091,267.955 309.091 C 268.331 309.091,268.842 308.845,269.091 308.545 C 269.340 308.245,269.851 308.000,270.226 308.000 C 270.602 308.000,270.909 307.836,270.909 307.636 C 270.909 307.436,271.216 307.273,271.592 307.273 C 271.967 307.273,272.478 307.027,272.727 306.727 C 272.976 306.427,273.487 306.182,273.863 306.182 C 274.238 306.182,274.545 306.018,274.545 305.818 C 274.545 305.618,274.844 305.455,275.209 305.455 C 275.574 305.455,276.258 305.045,276.727 304.545 C 277.197 304.045,277.790 303.636,278.045 303.636 C 278.299 303.636,278.949 303.227,279.489 302.727 C 280.028 302.227,280.663 301.818,280.899 301.818 C 281.135 301.818,281.712 301.409,282.182 300.909 C 282.652 300.409,283.242 300.000,283.494 300.000 C 283.746 300.000,284.792 299.182,285.818 298.182 C 286.845 297.182,287.883 296.364,288.124 296.364 C 288.366 296.364,289.783 295.136,291.273 293.636 C 292.763 292.136,294.172 290.909,294.405 290.909 C 294.637 290.909,296.346 289.436,298.202 287.636 C 300.057 285.836,301.759 284.364,301.982 284.364 C 302.502 284.364,306.182 280.652,306.182 280.128 C 306.182 279.911,307.245 278.632,308.545 277.286 C 309.845 275.941,310.909 274.645,310.909 274.406 C 310.909 274.168,311.727 273.167,312.727 272.182 C 313.727 271.197,314.545 270.194,314.545 269.954 C 314.545 269.714,315.118 268.927,315.818 268.206 C 316.518 267.486,317.091 266.682,317.091 266.420 C 317.091 266.159,317.500 265.561,318.000 265.091 C 318.500 264.621,318.909 263.933,318.909 263.562 C 318.909 263.190,319.155 262.792,319.455 262.677 C 319.755 262.562,320.000 262.186,320.000 261.843 C 320.000 261.499,320.409 260.833,320.909 260.364 C 321.409 259.894,321.818 259.317,321.818 259.081 C 321.818 258.845,322.227 258.210,322.727 257.671 C 323.227 257.131,323.636 256.481,323.636 256.226 C 323.636 255.972,324.045 255.379,324.545 254.909 C 325.045 254.439,325.455 253.816,325.455 253.524 C 325.455 253.232,325.864 252.613,326.364 252.150 C 326.864 251.687,327.273 251.064,327.273 250.766 C 327.273 250.468,327.436 250.124,327.636 250.000 C 327.836 249.876,328.000 249.304,328.000 248.727 C 328.000 248.151,328.153 247.585,328.341 247.469 C 328.772 247.202,329.818 245.124,329.818 244.534 C 329.818 244.289,330.064 243.885,330.364 243.636 C 330.664 243.387,330.909 242.876,330.909 242.501 C 330.909 242.125,331.073 241.818,331.273 241.818 C 331.473 241.818,331.636 241.511,331.636 241.135 C 331.636 240.760,331.882 240.249,332.182 240.000 C 332.482 239.751,332.727 239.086,332.727 238.522 C 332.727 237.959,332.891 237.396,333.091 237.273 C 333.291 237.149,333.455 236.725,333.455 236.331 C 333.455 235.936,333.700 235.519,334.000 235.404 C 334.337 235.275,334.545 234.722,334.545 233.961 C 334.545 233.282,334.709 232.727,334.909 232.727 C 335.109 232.727,335.273 232.256,335.273 231.681 C 335.273 231.105,335.518 230.431,335.818 230.182 C 336.118 229.933,336.364 229.268,336.364 228.704 C 336.364 228.141,336.527 227.578,336.727 227.455 C 336.927 227.331,337.091 226.523,337.091 225.659 C 337.091 224.707,337.306 223.911,337.636 223.636 C 337.947 223.379,338.182 222.586,338.182 221.795 C 338.182 221.031,338.345 220.305,338.545 220.182 C 338.745 220.058,338.909 219.389,338.909 218.694 C 338.909 217.907,339.115 217.353,339.455 217.222 C 339.845 217.073,340.000 216.462,340.000 215.073 C 340.000 214.007,340.164 213.033,340.364 212.909 C 340.564 212.785,340.727 211.978,340.727 211.114 C 340.727 210.162,340.942 209.365,341.273 209.091 C 341.632 208.792,341.818 207.980,341.818 206.704 C 341.818 205.641,341.982 204.669,342.182 204.545 C 342.382 204.422,342.545 203.041,342.545 201.478 C 342.545 199.394,342.691 198.514,343.091 198.182 C 343.529 197.818,343.636 196.705,343.636 192.501 C 343.636 189.258,343.774 187.273,344.000 187.273 C 344.231 187.273,344.364 184.492,344.364 179.658 C 344.364 174.973,344.224 171.956,344.000 171.818 C 343.785 171.685,343.636 169.464,343.636 166.381 C 343.636 162.083,343.541 161.132,343.091 160.959 C 342.678 160.801,342.545 160.133,342.545 158.215 C 342.545 156.820,342.382 155.578,342.182 155.455 C 341.982 155.331,341.818 154.523,341.818 153.659 C 341.818 152.707,341.603 151.911,341.273 151.636 C 340.962 151.379,340.727 150.586,340.727 149.795 C 340.727 149.031,340.564 148.305,340.364 148.182 C 340.164 148.058,340.000 147.250,340.000 146.387 C 340.000 145.434,339.785 144.638,339.455 144.364 C 339.144 144.106,338.909 143.313,338.909 142.522 C 338.909 141.759,338.745 141.033,338.545 140.909 C 338.345 140.785,338.182 139.975,338.182 139.108 C 338.182 138.043,338.005 137.465,337.636 137.323 C 337.336 137.208,337.091 136.791,337.091 136.397 C 337.091 136.002,336.927 135.578,336.727 135.455 C 336.527 135.331,336.364 134.521,336.364 133.654 C 336.364 132.588,336.187 132.010,335.818 131.868 C 335.476 131.737,335.273 131.181,335.273 130.375 C 335.273 129.669,335.109 129.091,334.909 129.091 C 334.709 129.091,334.545 128.784,334.545 128.408 C 334.545 128.033,334.300 127.522,334.000 127.273 C 333.700 127.024,333.455 126.522,333.455 126.159 C 333.455 125.795,333.291 125.396,333.091 125.273 C 332.891 125.149,332.727 124.584,332.727 124.017 C 332.727 123.437,332.489 122.896,332.182 122.778 C 331.882 122.662,331.636 122.246,331.636 121.851 C 331.636 121.457,331.473 121.033,331.273 120.909 C 331.073 120.785,330.909 120.384,330.909 120.017 C 330.909 119.651,330.664 119.256,330.364 119.141 C 330.064 119.026,329.818 118.628,329.818 118.257 C 329.818 117.885,329.409 117.197,328.909 116.727 C 328.409 116.258,328.000 115.681,328.000 115.447 C 328.000 114.872,326.947 112.794,326.522 112.531 C 326.335 112.415,326.182 112.003,326.182 111.615 C 326.182 111.227,326.018 110.909,325.818 110.909 C 325.618 110.909,325.455 110.602,325.455 110.226 C 325.455 109.851,325.209 109.340,324.909 109.091 C 324.609 108.842,324.364 108.406,324.364 108.121 C 324.364 107.837,323.955 107.163,323.455 106.624 C 322.955 106.085,322.545 105.472,322.545 105.263 C 322.545 105.053,321.727 104.076,320.727 103.091 C 319.727 102.106,318.909 101.092,318.909 100.838 C 318.909 100.585,318.336 99.787,317.636 99.066 C 316.936 98.345,316.364 97.553,316.364 97.305 C 316.364 97.057,315.955 96.470,315.455 96.000 C 314.955 95.530,314.545 94.943,314.545 94.694 C 314.545 94.446,313.891 93.541,313.091 92.683 C 312.291 91.825,311.636 90.947,311.636 90.732 C 311.636 90.517,310.655 89.369,309.455 88.182 C 308.255 86.994,307.273 85.743,307.273 85.400 C 307.273 85.033,306.939 84.730,306.458 84.662 C 306.010 84.598,305.588 84.253,305.520 83.895 C 305.369 83.104,295.062 72.727,294.428 72.727 C 294.180 72.727,293.006 71.745,291.818 70.545 C 290.631 69.345,289.424 68.364,289.137 68.364 C 288.850 68.364,287.992 67.709,287.231 66.909 C 286.470 66.109,285.627 65.455,285.359 65.455 C 285.090 65.455,284.315 64.882,283.636 64.182 C 282.958 63.482,282.131 62.909,281.798 62.909 C 281.465 62.909,280.886 62.500,280.510 62.000 C 280.135 61.500,279.567 61.091,279.250 61.091 C 278.932 61.091,278.288 60.682,277.818 60.182 C 277.348 59.682,276.786 59.273,276.569 59.273 C 276.352 59.273,275.733 58.864,275.194 58.364 C 274.655 57.864,273.981 57.455,273.697 57.455 C 273.413 57.455,272.976 57.209,272.727 56.909 C 272.478 56.609,272.073 56.364,271.827 56.364 C 271.580 56.364,270.938 55.955,270.398 55.455 C 269.858 54.955,269.190 54.545,268.912 54.545 C 268.634 54.545,268.305 54.382,268.182 54.182 C 268.058 53.982,267.634 53.818,267.240 53.818 C 266.845 53.818,266.428 53.573,266.313 53.273 C 266.195 52.965,265.654 52.727,265.073 52.727 C 264.507 52.727,263.942 52.564,263.818 52.364 C 263.695 52.164,263.296 52.000,262.932 52.000 C 262.568 52.000,262.067 51.755,261.818 51.455 C 261.569 51.155,261.058 50.909,260.683 50.909 C 260.307 50.909,260.000 50.745,260.000 50.545 C 260.000 50.345,259.422 50.182,258.716 50.182 C 257.910 50.182,257.354 49.979,257.222 49.636 C 257.104 49.329,256.563 49.091,255.983 49.091 C 255.416 49.091,254.851 48.927,254.727 48.727 C 254.604 48.527,254.205 48.364,253.841 48.364 C 253.478 48.364,252.976 48.118,252.727 47.818 C 252.478 47.518,251.813 47.273,251.250 47.273 C 250.686 47.273,250.124 47.109,250.000 46.909 C 249.876 46.709,249.314 46.545,248.750 46.545 C 248.187 46.545,247.522 46.300,247.273 46.000 C 247.024 45.700,246.359 45.455,245.795 45.455 C 245.231 45.455,244.669 45.291,244.545 45.091 C 244.422 44.891,243.859 44.727,243.296 44.727 C 242.732 44.727,242.067 44.482,241.818 44.182 C 241.569 43.882,240.904 43.636,240.341 43.636 C 239.777 43.636,239.215 43.473,239.091 43.273 C 238.967 43.073,238.134 42.909,237.240 42.909 C 236.130 42.909,235.547 42.736,235.404 42.364 C 235.263 41.995,234.684 41.818,233.619 41.818 C 232.752 41.818,231.942 41.655,231.818 41.455 C 231.695 41.255,230.862 41.091,229.967 41.091 C 228.857 41.091,228.274 40.918,228.132 40.545 C 227.982 40.155,227.371 40.000,225.983 40.000 C 224.916 40.000,223.942 39.836,223.818 39.636 C 223.695 39.436,222.478 39.273,221.114 39.273 C 219.354 39.273,218.503 39.115,218.182 38.727 C 217.818 38.289,216.705 38.182,212.501 38.182 C 209.258 38.182,207.273 38.044,207.273 37.818 C 207.273 37.587,204.492 37.455,199.658 37.455 C 194.973 37.455,191.956 37.594,191.818 37.818 M214.727 56.541 C 308.942 67.567,357.764 176.027,303.524 253.803 C 249.059 331.901,130.959 323.866,87.656 239.116 C 42.013 149.785,115.031 44.872,214.727 56.541 M148.905 131.279 C 138.948 133.259,129.486 142.598,127.480 152.426 C 125.933 160.008,131.695 162.589,134.915 155.755 C 135.558 154.390,136.664 152.045,137.373 150.545 C 144.987 134.429,164.606 136.295,172.009 153.839 C 174.348 159.383,176.849 161.025,179.270 158.605 C 181.409 156.465,180.993 152.387,178.021 146.364 C 172.550 135.278,160.415 128.990,148.905 131.279 M239.720 131.642 C 230.464 134.067,222.192 142.449,219.822 151.804 C 217.483 161.034,224.251 162.703,227.999 153.820 C 235.421 136.233,254.981 134.436,262.664 150.635 C 263.353 152.086,264.442 154.390,265.085 155.755 C 268.639 163.298,274.586 159.309,272.171 151.001 C 268.087 136.953,253.245 128.098,239.720 131.642 M235.741 180.185 C 223.590 182.826,218.555 191.603,218.539 210.172 C 218.525 226.919,215.271 230.853,201.151 231.193 C 171.969 231.896,145.377 218.972,127.247 195.273 C 122.678 189.300,120.815 188.031,118.344 189.209 C 114.833 190.883,116.192 195.302,122.726 203.455 C 161.881 252.311,238.249 252.125,277.573 203.077 C 283.791 195.321,285.126 190.983,281.822 189.275 C 279.363 188.003,277.616 189.079,273.284 194.531 C 267.039 202.391,264.539 202.607,261.863 195.517 C 257.385 183.654,247.224 177.690,235.741 180.185 M246.257 189.932 C 250.359 191.939,253.116 196.062,253.841 201.274 C 254.851 208.530,252.557 214.909,248.938 214.909 C 246.604 214.909,245.906 213.247,245.610 206.990 C 245.259 199.571,244.173 197.091,241.273 197.091 C 238.148 197.091,237.092 199.791,237.088 207.793 C 237.084 215.271,236.622 218.942,235.371 221.443 C 233.435 225.311,229.331 226.141,227.761 222.983 C 226.914 221.281,226.802 203.581,227.614 199.818 C 229.539 190.898,238.508 186.141,246.257 189.932 " stroke="none" fill="#1f1f1e" fill-rule="evenodd"></path><path id="path1" d="M189.818 56.031 C 87.988 64.484,37.713 185.201,103.596 263.067 C 172.235 344.190,303.285 309.714,323.969 205.091 C 339.885 124.589,272.041 49.206,189.818 56.031 M160.126 131.622 C 171.130 134.436,181.856 147.203,180.548 155.927 C 179.665 161.819,174.882 160.649,172.009 153.839 C 164.606 136.295,144.987 134.429,137.373 150.545 C 136.664 152.045,135.558 154.390,134.915 155.755 C 131.695 162.589,125.933 160.008,127.480 152.426 C 130.410 138.066,146.137 128.044,160.126 131.622 M251.977 131.484 C 261.167 133.697,269.475 141.726,272.171 151.001 C 274.586 159.309,268.639 163.298,265.085 155.755 C 264.442 154.390,263.353 152.086,262.664 150.635 C 254.981 134.436,235.421 136.233,227.999 153.820 C 224.251 162.703,217.483 161.034,219.822 151.804 C 223.397 137.691,238.395 128.213,251.977 131.484 M245.907 180.340 C 253.667 182.325,258.685 187.097,261.863 195.517 C 264.539 202.607,267.039 202.391,273.284 194.531 C 277.616 189.079,279.363 188.003,281.822 189.275 C 285.126 190.983,283.791 195.321,277.573 203.077 C 238.249 252.125,161.881 252.311,122.726 203.455 C 116.192 195.302,114.833 190.883,118.344 189.209 C 120.815 188.031,122.678 189.300,127.247 195.273 C 145.377 218.972,171.969 231.896,201.151 231.193 C 215.271 230.853,218.525 226.919,218.539 210.172 C 218.546 201.876,218.950 197.667,220.052 194.383 C 223.607 183.795,235.071 177.568,245.907 180.340 M236.671 189.213 C 231.760 191.045,228.745 194.575,227.614 199.818 C 226.802 203.581,226.914 221.281,227.761 222.983 C 229.331 226.141,233.435 225.311,235.371 221.443 C 236.622 218.942,237.084 215.271,237.088 207.793 C 237.092 199.791,238.148 197.091,241.273 197.091 C 244.173 197.091,245.259 199.571,245.610 206.990 C 245.906 213.247,246.604 214.909,248.938 214.909 C 253.606 214.909,255.829 203.616,252.565 196.485 C 249.869 190.597,242.274 187.122,236.671 189.213 " stroke="none" fill="#fbfbfb" fill-rule="evenodd"></path></g></svg>